<?xml version="1.0" encoding="utf-8"?>
<!-- Generator: Adobe Illustrator 17.1.0, SVG Export Plug-In . SVG Version: 6.00 Build 0)  -->
<!DOCTYPE svg PUBLIC "-//W3C//DTD SVG 1.1//EN" "http://www.w3.org/Graphics/SVG/1.1/DTD/svg11.dtd">
<svg version="1.1" id="Layer_1" xmlns="http://www.w3.org/2000/svg" xmlns:xlink="http://www.w3.org/1999/xlink" x="0px" y="0px"
	 viewBox="0 0 471.3 113" enable-background="new 0 0 471.3 113" xml:space="preserve">
<path fill="#FFFFFF" d="M470.4,5c-1.6-2.4-3.5-4-11.6-4.6c-2.1-0.2-9.1-0.4-20.8-0.4c-30.8,0-51.7,9.3-62.4,27.8
	C378.7,9.3,360.6,0,321.5,0c-45.9,0-74.6,18.5-86,55.5c-4.2,13.8-4.7,25-1.3,33.8L223.3,90c-8.5,0.7-19.6,1.2-26.4,1.2
	c-16.8,0-27.2-2.8-31.3-8.5c-3.6-5.1-3.3-14.5,1-28.2c7-22.7,24.4-32.9,52.1-32.9c14.4,0,28.4,1.5,28.4,1.5v0
	c1.9-0.1,2.8-2.1,2.6-3.8l-0.3-2.2l-1-7.6c-0.7-5-4.4-8-11.2-8.9C230.9,0.3,226.3,0,219.4,0c-0.1,0-0.3,0-0.4,0
	c-36.3,0.1-61.6,12-75.8,35.7C148.5,11.9,131.7,0,92.8,0C71.2,0,55.8,0.6,46.4,1.8c-7.2,0.9-11.6,3.9-13.2,8.9l-3.1,9.8
	c-0.6,1.8,0.3,2.7,2.6,2.7l0.1,0c1.7-0.2,8.3-0.9,19.5-1.8c14.9-1.2,25.9-1.8,33.1-1.8c21.4,0,30.4,5.4,27,16.1
	c-0.7,2.4-2.4,3.8-4.8,4.4c-20.2,3.4-36.3,5.8-48.2,7.2C26,51.7,6.7,62.1,1.5,78.6c-7.1,22.8,10.7,34.2,53.6,34.2
	c21.4,0,39.3-1.3,53.8-3.7c8.4-1.4,12.6-3.5,14.3-8.9l8-25.4c-0.8,25.4,17,38.2,53.4,38.2c15.8,0,30.8-0.5,37.8-1.7
	c7.5-1.3,11.1-2.9,12.7-8.6l1.6-8c7.8,12.1,24.8,18.2,51.1,18.2c27.8,0,43.9-0.8,48.6-2.3c3.9-1.2,6.3-3.2,7.1-6
	c0.2-0.5,0.3-1,0.3-1.6l3.3-10.8c0.6-1.9-0.3-2.8-2.6-2.7l-17.8,0.9c-11.9,0.6-21.1,1-27.8,1c-12.6,0-21.3-0.9-26-2.6
	c-7-2.7-10.4-8.1-10-16.2l56.3-7.2c25.2-3.2,42.1-11,50.6-23.3l-19.1,66.4c-0.4,1.3-0.2,2.3,0.4,3c0.7,0.8,1.9,1.2,3.7,1.2h23.3
	c4.1,0,5.5-2.1,6-3.9l20.6-71.7c2.7-9.4,11.4-14,26.5-14c13.7,0,24,0.1,30.5,0.4c0.2,0,0.3,0,0.5,0c1.3,0,3.6-0.5,4.8-3.6l3.6-9.8
	C471.5,8.1,471.4,6.5,470.4,5z M95,91.3C87.8,92.4,77.3,93,63.7,93c-23.7,0-34-4.8-31-14.3c2.2-6.9,8.4-11,18.7-12.4l53.8-7.2
	L95,91.3z M343.9,33.2c-2.3,7.3-12.8,12.4-31.6,15.1l-44.9,6.4l1.1-3.7c3.7-12.1,9-20.3,15.8-24.7c6.8-4.4,17.9-6.6,33.3-6.6
	C337.9,19.7,346.7,24.2,343.9,33.2z"/>
</svg>
