<?xml version="1.0" encoding="utf-8"?>
<!-- Generator: Adobe Illustrator 17.1.0, SVG Export Plug-In . SVG Version: 6.00 Build 0)  -->
<!DOCTYPE svg PUBLIC "-//W3C//DTD SVG 1.1//EN" "http://www.w3.org/Graphics/SVG/1.1/DTD/svg11.dtd">
<svg version="1.1" id="Layer_1" xmlns="http://www.w3.org/2000/svg" xmlns:xlink="http://www.w3.org/1999/xlink" x="0px" y="0px"
	 viewBox="0 0 360.7 269" enable-background="new 0 0 360.7 269" xml:space="preserve">
<path fill-rule="evenodd" clip-rule="evenodd" fill="#F6F6F6" d="M17.8,101.5l91,16l13-2l52-59l5-20l4-25l13-2l10-3l11,13l10,44
	l-15,42l90,15l9,12l-7,16l-5,10l-4,17l-8,12l-4,14l-2,9l-3,5l63,7l13,9l1,18l-14,13l-203-21l-14-4l-14-9l-8-1l-4,10l-35,2l-37-4
	l-17-9L17.8,101.5z"/>
<g>
	<g>
		<path fill="#333333" d="M215.2,239.6c0.6-0.9,0.2-1.8-0.4-2.7C214.9,237.8,215.1,238.7,215.2,239.6z M337,213.1l-49.4-4.9
			c1.3-2.9,2.1-6.1,2.1-9.3c0.1-2.7-0.6-5.3-0.9-8c0.5-0.5,1.1-1.1,1.7-1.5c7.8-5.8,12.8-15.4,12.1-25.1c-0.1-1.6-0.6-3.1-0.6-4.7
			c0.4-0.8,1.3-1.3,1.9-1.9c3.4-2.7,6.3-6,8.4-9.8c2.3-4.3,4-9.1,3.5-14c-0.2-5.7-2.6-11.4-7-15.4c-4.7-4.3-10.9-7-17.3-7.6
			c-23.9-3.1-47.8-6-71.6-9.2c-0.8-0.1-2-0.2-1.5-1.3c3.5-12.1,7.3-24.1,10.6-36.2c0.7-2.7,0.6-5.6,0.5-8.4
			c-0.6-15.3-4.5-30.2-9.8-44.5c-1.7-4.6-6.4-7.1-10.8-8.8c-3.7-1.2-7.4-2.7-11.3-2.8c-4,0-8.1,0.4-11.8,1.8
			c-4,1.4-7.6,3.8-10.1,7.2c-1.7,2.2-1.6,5.1-2,7.7c-0.5,4.8-1.6,9.6-1.5,14.5c0,5.4-0.9,10.7-1.6,16.1c-0.4,4.2-3.4,7.5-5.8,10.8
			c-2.9,4.1-6,8-9.1,12c-8.1,10.2-16.5,20.1-25.2,29.7c-3.8,4-7.7,8.4-13,10.6c-1.1-0.5-2.1-1.2-3.2-1.7c-2.2-1.1-4.7-1.3-7.1-1.6
			C79.5,103.5,51.7,100,24,96.4c-3.4-0.5-7.1-1.1-10.4,0.2c-3.5,1.4-6.3,4.2-7.4,7.7c-0.7,2.2-0.6,4.5-0.7,6.8
			C3.7,148.7,2,186.4,0.2,224c-0.5,3.3-0.1,6.9,1.6,9.9c1.9,3.1,5.4,5.3,9.1,5.8c26.5,3.4,53,6.7,79.4,10.1c2.3,0.3,4.6,0.8,6.8,0.2
			c4-0.9,7.6-4,8.8-7.9c0.7-2.2,0.7-4.6,1.2-6.9c3.4,1.7,5.9,4.6,9.3,6.4c4.5,2.9,9.9,3.8,15,4.7c34.1,4.3,68.3,8.7,102.4,13
			c2,0.3,4,0.4,6,0.5l90.1,8.9c14.9,1.9,28.5-9.1,30.5-24.4C362.4,229,351.9,215,337,213.1z M85,237.4c-5.4-0.4-10.8-1.3-16.2-1.9
			c-12.2-1.5-24.4-3.1-36.6-4.7c-6.9-0.9-13.8-1.6-20.6-2.7c0-2.3,0.3-4.6,0.4-6.9c1.4-32,2.9-63.9,4.4-95.9c0.4-6-0.1-12.1,1-18.1
			c0.7,0,1.3,0.1,2,0.1c24.9,3.2,49.8,6.3,74.7,9.5c2,0.3,4.1,0.4,6.1,0.9C95.2,157.7,90.2,197.6,85,237.4z M348.5,243.7
			c-1.1,8.6-9.5,14.7-17.6,13.7l-91.5-9.4c-0.7-0.1-1.4-0.3-2.1-0.4c-6-0.8-12.1-1.5-18.1-2.3c-0.9-0.1-1.7-0.2-2.6-0.4
			c0,0.1,0.1,0.2,0.1,0.4c-1.5-0.2-3.1-0.5-4.5-1c-1.6,0.2-3.3-0.3-4.9-0.4c-26.2-3-52.4-6.7-78.6-9.9c-5.9-0.7-10.1-5.3-14.6-8.7
			c-1.9-1.2-3.3-3-5.5-3.8c-3.1-0.5-6.3-1-9.3-1.8c0.2-3.3,0.9-6.6,1.3-9.9c2.9-22.1,5.6-44.2,8.5-66.4c0.4-3.7,1-7.4,1.3-11.1
			c0.2-1.7,0.3-3.5,0.8-5.2c1.8-0.9,3.7-1.5,5.6-2.3c1.7-0.7,3.2-1.7,4.9-2.3c4.8-3,9.7-6.1,13.6-10.3
			c11.8-12.2,22.7-25.3,33.1-38.7c4.2-5.5,8.4-10.9,11.9-16.8c0.8-1.4,1.6-2.9,1.8-4.5c1.6-12.2,2.7-24.5,4-36.7
			c0.1-1,1.3-1.2,2-1.7c2.6-1.6,5.8-2,8.8-2.1c3.5,0.2,6.8,1.5,10,2.8c1,0.4,2.1,0.9,2.3,2c4.4,12.3,7.8,25,8.6,37.9
			c0.2,3.2,0,6.4-0.9,9.5c-3,10.2-5.9,20.4-9.1,30.5c-1.7,5.7-3.7,11.4-5.5,17.1c2.5,0,4.9,0.4,7.4,0.7c15.5,2.1,31.1,3.8,46.6,6
			c0.1,0,0.1,0,0.2,0c-0.1-0.1-0.3-0.3-0.4-0.4c10.7,1.1,21.3,2.7,32,3.9c3.3,0.3,6.5,1,9.4,2.5c2.3,1.2,4.2,3.2,5.3,5.5
			c0.7,1.3,1.1,2.7,1.2,4.2c0.1,3.3-0.8,6.6-2.6,9.3c-2.2,3.5-5.6,6.3-9.4,8.1c-1.4,0.7-2.9,1-4.2,1.8c-1,0.8-1.3,2.1-1.6,3.4
			c1.2,1.6,2.8,3.1,3.6,5c0.3,0.6,0.6,1.2,0.7,1.9c0.7,3.6-0.1,7.5-2,10.7c-2.8,4.8-7.6,8.1-12.8,9.9c-1.9,0.5-2.2,2.7-2.5,4.3
			c0.7,0.9,1.6,1.6,2.3,2.5c0.6,0.7,1,1.5,1.3,2.4c1.1,2.6,1.1,5.6,0.3,8.2c-0.6,2-1.5,3.8-2.7,5.4l-0.4,0c-2.2,3-5.3,5.4-8.7,7
			c-1.3,0.6-2.7,1-3.9,1.8c-0.9,0.7-1.3,1.8-1.6,2.8l75.9,7.8C343.9,227.3,349.6,235.1,348.5,243.7z"/>
	</g>
</g>
</svg>
